<?xml version="1.0" encoding="UTF-8"?>
<!DOCTYPE svg PUBLIC "-//W3C//DTD SVG 1.1//EN" "http://www.w3.org/Graphics/SVG/1.1/DTD/svg11.dtd">
<svg xmlns="http://www.w3.org/2000/svg" version="1.1" width="1025px" height="1025px"
    style="shape-rendering:geometricPrecision; text-rendering:geometricPrecision; image-rendering:optimizeQuality; fill-rule:evenodd; clip-rule:evenodd"
    xmlns:xlink="http://www.w3.org/1999/xlink">
    <g>
        <path style="opacity:0.998" fill="#000000"
            d="M 572.5,168.5 C 575.152,168.59 577.485,167.924 579.5,166.5C 581.292,165.691 583.292,165.191 585.5,165C 592.167,164.333 598.833,164.333 605.5,165C 612.871,172.058 611.871,177.725 602.5,182C 593.49,183.086 584.823,185.419 576.5,189C 566.974,194.259 557.641,199.759 548.5,205.5C 547.913,207.685 548.913,209.352 551.5,210.5C 572.4,232.973 584.567,259.64 588,290.5C 592.064,329.908 583.398,366.242 562,399.5C 525.911,453.823 475.745,487.656 411.5,501C 358.983,510.573 306.317,511.573 253.5,504C 233.778,501.397 214.111,498.564 194.5,495.5C 190.79,493.864 186.79,493.198 182.5,493.5C 178.493,492.996 174.493,492.83 170.5,493C 173.663,498.319 176.996,503.485 180.5,508.5C 180.427,510.027 181.094,511.027 182.5,511.5C 183.5,511.833 184.167,512.5 184.5,513.5C 187.167,518.167 190.833,521.833 195.5,524.5C 196.5,524.833 197.167,525.5 197.5,526.5C 197.973,527.906 198.973,528.573 200.5,528.5C 219.677,541.726 241.01,548.893 264.5,550C 276.181,550.635 287.848,550.469 299.5,549.5C 303.458,549.749 307.124,549.082 310.5,547.5C 313.228,547.829 315.562,547.163 317.5,545.5C 320.01,545.946 322.01,545.28 323.5,543.5C 331.565,539.633 339.565,535.466 347.5,531C 358.576,530.095 362.076,534.928 358,545.5C 346.757,555.873 333.591,562.706 318.5,566C 282.939,573.582 247.939,571.582 213.5,560C 182.84,547.174 160.507,525.674 146.5,495.5C 145.833,495.167 145.167,494.833 144.5,494.5C 128.709,500.758 112.376,502.925 95.5,501C 85.2914,498.445 81.1247,491.945 83,481.5C 87.6242,472.263 95.1242,467.097 105.5,466C 114.125,464.799 122.792,464.299 131.5,464.5C 133.467,464.261 135.301,464.594 137,465.5C 137.765,463.934 137.598,462.601 136.5,461.5C 123.227,373.145 149.561,298.978 215.5,239C 296.914,168.732 389.914,146.732 494.5,173C 506.724,177.779 518.391,183.612 529.5,190.5C 542.855,181.322 557.188,173.989 572.5,168.5 Z M 419.5,183.5 C 449.134,182.564 477.467,188.064 504.5,200C 506.001,201.252 507.668,202.252 509.5,203C 510.451,203.718 510.617,204.551 510,205.5C 491.993,219.27 474.827,234.103 458.5,250C 412.804,296.029 367.471,342.362 322.5,389C 300.822,409.686 277.155,427.686 251.5,443C 223.245,458.98 192.912,466.98 160.5,467C 149.215,414.208 158.049,365.041 187,319.5C 231.454,254.986 291.62,212.153 367.5,191C 384.805,187.218 402.139,184.718 419.5,183.5 Z M 554.5,272.5 C 554.754,285.197 554.421,297.863 553.5,310.5C 548.774,338.277 538.274,363.611 522,386.5C 516.399,394.046 510.565,401.379 504.5,408.5C 502.413,409.585 501.08,411.251 500.5,413.5C 495.167,418.167 490.167,423.167 485.5,428.5C 482.236,430.094 479.569,432.427 477.5,435.5C 474.911,436.419 472.911,438.086 471.5,440.5C 435.998,466.897 395.998,481.897 351.5,485.5C 331.5,485.5 311.5,485.5 291.5,485.5C 271.594,483.9 251.594,481.733 231.5,479C 279.357,465.248 321.69,441.914 358.5,409C 376.305,392.196 393.805,375.029 411,357.5C 434.333,329.5 457.667,301.5 481,273.5C 496.801,256.031 512.967,238.865 529.5,222C 531.367,221.289 532.867,221.789 534,223.5C 544.681,238.199 551.514,254.532 554.5,272.5 Z" />
    </g>
    <g>
        <path style="opacity:0.999" fill="#000000"
            d="M 652.5,536.5 C 650.973,536.427 649.973,537.094 649.5,538.5C 647.5,541.167 645.167,543.5 642.5,545.5C 640.973,545.427 639.973,546.094 639.5,547.5C 632.833,554.833 625.833,561.833 618.5,568.5C 617.094,568.973 616.427,569.973 616.5,571.5C 614.833,573.833 612.833,575.833 610.5,577.5C 609.094,577.973 608.427,578.973 608.5,580.5C 592.396,599.023 579.562,619.689 570,642.5C 563.445,659.035 562.612,675.702 567.5,692.5C 567.427,694.027 568.094,695.027 569.5,695.5C 573.401,698.946 577.734,701.613 582.5,703.5C 583.609,704.29 584.942,704.79 586.5,705C 597.008,705.825 607.342,705.659 617.5,704.5C 641.536,700.933 664.536,693.933 686.5,683.5C 691.705,682.231 696.372,679.898 700.5,676.5C 753.506,646.075 803.339,611.075 850,571.5C 859.734,559.699 868.734,547.365 877,534.5C 879.167,532.333 881.333,530.167 883.5,528C 895.152,525.475 900.485,530.308 899.5,542.5C 899.712,551.362 897.212,559.362 892,566.5C 884.226,575.114 875.726,582.781 866.5,589.5C 864.167,589.833 862.833,591.167 862.5,593.5C 861.094,593.973 860.427,594.973 860.5,596.5C 828.532,642.827 791.532,684.994 749.5,723C 712.343,756.261 670.343,781.928 623.5,800C 585.713,814.541 546.713,819.541 506.5,815C 493.153,812.886 480.819,808.219 469.5,801C 451.576,784.273 447.409,764.44 457,741.5C 464.859,725.641 476.692,713.808 492.5,706C 502.626,704.785 506.126,708.951 503,718.5C 496.965,724.703 490.798,730.703 484.5,736.5C 483.094,736.973 482.427,737.973 482.5,739.5C 480.035,742.614 478.035,745.947 476.5,749.5C 474.564,753.666 473.564,758.166 473.5,763C 473.36,766.15 474.027,768.983 475.5,771.5C 476.733,774.735 478.399,777.735 480.5,780.5C 481.262,782.262 482.596,783.262 484.5,783.5C 487.247,786.207 490.58,787.873 494.5,788.5C 498.687,789.213 502.687,790.213 506.5,791.5C 513.276,792.961 520.276,793.628 527.5,793.5C 531.833,793.333 536.167,793.167 540.5,793C 541.737,792.768 542.737,792.268 543.5,791.5C 547.5,791.167 551.5,790.833 555.5,790.5C 559.458,790.749 563.124,790.082 566.5,788.5C 567.568,787.566 568.901,787.232 570.5,787.5C 573.228,787.829 575.562,787.163 577.5,785.5C 604.83,777.226 630.497,765.392 654.5,750C 688.311,726.758 720.645,701.591 751.5,674.5C 755.038,671.349 758.705,668.183 762.5,665C 759.78,666.177 757.113,667.677 754.5,669.5C 754.5,669.833 754.5,670.167 754.5,670.5C 753.833,670.5 753.5,670.833 753.5,671.5C 735.251,682.545 716.585,693.045 697.5,703C 661.793,720.408 624.126,728.075 584.5,726C 548.382,721.383 530.048,700.883 529.5,664.5C 529.5,662.5 529.5,660.5 529.5,658.5C 528.5,658.5 527.5,658.5 526.5,658.5C 492.922,642.396 473.755,615.729 469,578.5C 465.441,522.128 486.274,477.295 531.5,444C 575.946,414.518 624.946,398.185 678.5,395C 725.944,392.052 773.111,394.552 820,402.5C 840.612,397.511 861.446,393.678 882.5,391C 904.542,388.83 926.542,389.163 948.5,392C 962.129,394.145 974.129,399.645 984.5,408.5C 995.554,420.178 996.221,432.345 986.5,445C 976.343,451.142 965.343,453.142 953.5,451C 914.056,444.645 874.723,437.645 835.5,430C 832.5,429.333 829.5,429.333 826.5,430C 762.425,456.175 704.425,491.675 652.5,536.5 Z M 943.5,412.5 C 946.127,413.092 948.794,413.425 951.5,413.5C 954.215,415.072 957.215,416.072 960.5,416.5C 962.181,418.008 964.181,419.008 966.5,419.5C 966.973,420.906 967.973,421.573 969.5,421.5C 970.5,422.833 971.5,424.167 972.5,425.5C 974.248,428.176 973.581,430.009 970.5,431C 963.491,431.423 956.491,431.256 949.5,430.5C 945.058,429.01 940.391,428.01 935.5,427.5C 918.608,423.455 901.608,419.788 884.5,416.5C 882.112,415.651 879.779,414.651 877.5,413.5C 880.059,413.802 882.393,413.468 884.5,412.5C 904.168,411.182 923.835,411.182 943.5,412.5 Z M 681.5,423.5 C 709.502,423.333 737.502,423.5 765.5,424C 697.32,451.548 637.82,491.715 587,544.5C 567.807,565.379 552.14,588.712 540,614.5C 536.994,622.019 534.494,629.686 532.5,637.5C 514.671,629.497 502.504,616.164 496,597.5C 482.341,544.141 497.508,500.974 541.5,468C 565.036,452.07 590.702,440.737 618.5,434C 639.433,429.227 660.433,425.727 681.5,423.5 Z" />
    </g>
</svg>