<?xml version="1.0" encoding="UTF-8"?>
<svg version="1.1" xmlns="http://www.w3.org/2000/svg" width="500" height="500">
    <linearGradient id="SVGID_2_" gradientUnits="userSpaceOnUse" x1="137.5985" y1="211.5875" x2="221.6924" y2="302.7203"
        gradientTransform="matrix(1 0 0 -1 -6 650.25)">
        <stop offset="0.58" style="stop-color:#9cd6ff" />
        <stop offset="0.73" style="stop-color:#0396ff" />
        <stop offset="0.91" style="stop-color:#0392ef" />
    </linearGradient>
    <path
        d="M0 0 C17.0914351 -0.0940133 34.18278794 -0.16425529 51.2744236 -0.20724869 C59.21282288 -0.22775406 67.15106023 -0.25564017 75.08935547 -0.30175781 C82.01945062 -0.34199863 88.94942836 -0.36751981 95.87963712 -0.37635398 C99.53913463 -0.38150675 103.19829664 -0.3933559 106.85768509 -0.42292023 C141.21941692 -0.68942524 172.7619435 4.0808552 199 28 C199.71542969 28.64582031 200.43085938 29.29164062 201.16796875 29.95703125 C220.94506142 48.73953125 231.71951267 77.10976602 233 104 C233.04125 104.845625 233.0825 105.69125 233.125 106.5625 C233.58397439 125.83942422 228.37421801 144.34799505 221 162 C221.54640137 161.41202637 222.09280273 160.82405273 222.65576172 160.21826172 C238.67060205 143.19480015 259.76522255 133.20412731 282 127 C282.68400879 126.80647949 283.36801758 126.61295898 284.07275391 126.41357422 C316.74148624 117.69469511 354.71643331 124.65291842 383.64013672 141.10058594 C395.97409791 148.38672388 408.95976053 157.9396408 417 170 C417 170.99 417 171.98 417 173 C414.91015625 175.015625 414.91015625 175.015625 412.0625 177.25 C411.05445313 178.04792969 410.04640625 178.84585938 409.0078125 179.66796875 C408.01523437 180.43753906 407.02265625 181.20710937 406 182 C405.21367187 182.61488281 404.42734375 183.22976562 403.6171875 183.86328125 C402.17459988 184.98787913 400.72931876 186.10903117 399.28125 187.2265625 C395.15052403 190.43777755 391.07800976 193.72226773 387 197 C383.44421705 194.02475304 380.0682645 191.10578369 376.9375 187.6875 C361.8729767 172.48877159 338.74331053 164.07381787 317.73046875 163.75854492 C293.68212509 163.68152332 273.3531464 169.56870759 255.50390625 186.40234375 C240.61165938 201.85217865 235.32055296 221.28896057 235.53173828 242.20605469 C236.10209115 261.03665785 243.52696743 279.59082066 257 293 C275.52766249 309.18921965 298.80000329 315.39020638 323.0703125 313.77734375 C339.00122835 312.09265758 354.69701051 305.61634263 365 293 C373.22490057 281.88208737 375.37288218 269.40493416 377 256 C376.31317642 256.00222061 375.62635284 256.00444122 374.91871643 256.00672913 C367.79794838 256.02877895 360.67718996 256.04390533 353.55639648 256.05493164 C350.89558519 256.05997383 348.23477668 256.06680736 345.57397461 256.07543945 C341.75894484 256.08751009 337.94395156 256.09322929 334.12890625 256.09765625 C332.93100967 256.10281754 331.7331131 256.10797882 330.49891663 256.11329651 C328.84731789 256.11340981 328.84731789 256.11340981 327.16235352 256.11352539 C326.18750504 256.115746 325.21265656 256.11796661 324.20826721 256.12025452 C322 256 322 256 321 255 C320.74657764 250.69352364 320.81477362 246.37554946 320.8125 242.0625 C320.80025391 240.84369141 320.78800781 239.62488281 320.77539062 238.36914062 C320.77345703 237.20705078 320.77152344 236.04496094 320.76953125 234.84765625 C320.76542236 233.77523682 320.76131348 232.70281738 320.75708008 231.59790039 C321 229 321 229 323 227 C325.88151138 226.80650041 328.66656246 226.73781145 331.54882812 226.75708008 C332.87580971 226.75423256 332.87580971 226.75423256 334.229599 226.75132751 C337.16357187 226.74761276 340.09729901 226.75833391 343.03125 226.76953125 C345.06384248 226.77072278 347.09643551 226.77117627 349.12902832 226.7709198 C353.39285723 226.77248588 357.65660233 226.780785 361.92041016 226.79418945 C367.39515695 226.81117945 372.86981154 226.81500386 378.3445816 226.81424427 C382.54291673 226.81451577 386.74123155 226.81999374 390.93955994 226.82724571 C392.9586522 226.83043549 394.97774678 226.83240051 396.99684143 226.83313942 C399.8149917 226.83529971 402.6330428 226.84403723 405.45117188 226.85473633 C406.29175644 226.85428314 407.132341 226.85382996 407.99839783 226.85336304 C413.77104676 226.88552338 413.77104676 226.88552338 416 228 C416 267.6 416 307.2 416 348 C408.74 348 401.48 348 394 348 C392.845 345.421875 391.69 342.84375 390.5 340.1875 C390.13455078 339.37949951 389.76910156 338.57149902 389.39257812 337.73901367 C389.10833984 337.09681885 388.82410156 336.45462402 388.53125 335.79296875 C388.09135742 334.81106567 388.09135742 334.81106567 387.64257812 333.80932617 C387 332 387 332 387 329 C383.70527395 330.92240606 380.62443641 332.97875427 377.5625 335.25 C352.57083511 352.77374136 321.09034638 357.57901788 291.32885742 352.6171875 C268.47373892 348.19991165 247.80375748 338.90150112 230 324 C229.20335937 323.36707031 228.40671875 322.73414063 227.5859375 322.08203125 C207.01588639 305.03723625 195.1120026 278.61607219 192.2109375 252.43505859 C190.32796959 230.6981119 193.51606974 211.14982895 201.29150391 190.875 C201.90014816 189.26425299 202.45548611 187.63354167 203 186 C202.26910156 186.81791016 202.26910156 186.81791016 201.5234375 187.65234375 C181.64402126 208.79681375 153.18748907 217.34174712 125 219 C120.71819153 219.1251004 116.44065459 219.13719762 112.15722656 219.12939453 C110.94749176 219.13114685 109.73775696 219.13289917 108.49136353 219.13470459 C105.21942927 219.13831494 101.94753644 219.1375222 98.67560291 219.1343255 C95.23814122 219.13176975 91.80068203 219.13414767 88.36322021 219.13571167 C82.60737622 219.13752112 76.85154515 219.13515631 71.09570312 219.13037109 C64.43747697 219.12489969 57.7792813 219.12671675 51.12105584 219.1321975 C45.38918809 219.13672669 39.65732954 219.13738107 33.92546058 219.13475883 C30.50786065 219.13319896 27.0902751 219.132995 23.67267609 219.13629532 C19.87844227 219.13881831 16.08426838 219.13498775 12.29003906 219.12939453 C10.58682999 219.13243088 10.58682999 219.13243088 8.84921265 219.13552856 C7.31029861 219.13129883 7.31029861 219.13129883 5.74029541 219.12698364 C4.8436832 219.12660662 3.947071 219.12622959 3.02328873 219.12584114 C1 219 1 219 0 218 C-0.09790618 215.19314649 -0.12992803 212.41090064 -0.12025452 209.60362244 C-0.12110894 208.7125536 -0.12196337 207.82148476 -0.12284368 206.90341383 C-0.12450122 203.89384123 -0.11897265 200.88432339 -0.11352539 197.87475586 C-0.11324355 195.72685243 -0.11340119 193.5789489 -0.1139679 191.43104553 C-0.114256 185.58004331 -0.1083572 179.7290614 -0.10139394 173.87806392 C-0.09516253 167.77080687 -0.09455677 161.66354941 -0.09336853 155.55628967 C-0.09025458 143.98238035 -0.08204035 132.40848042 -0.07201904 120.83457524 C-0.06085986 107.66188977 -0.05534795 94.48920386 -0.05032361 81.31651485 C-0.03985778 54.21100468 -0.02225712 27.10550287 0 0 Z M40 35 C40 83.84 40 132.68 40 183 C62.1203125 183.0928125 62.1203125 183.0928125 84.6875 183.1875 C91.63623169 183.22846802 91.63623169 183.22846802 98.7253418 183.27026367 C102.92837955 183.28030553 102.92837955 183.28030553 107.13142395 183.28633118 C108.98337475 183.29089612 110.83531742 183.30135914 112.68721008 183.31672668 C126.76867665 183.42759618 139.60109079 182.99465781 152.3125 176.1875 C153.33065796 175.65539917 153.33065796 175.65539917 154.36938477 175.11254883 C171.68593004 165.88441996 182.09207788 150.38858451 187.98046875 131.92578125 C193.48922026 110.48561691 190.84782783 86.31209975 180 67 C177.55495493 63.43278873 174.88296519 60.21584364 172 57 C171.38511719 56.17886719 170.77023438 55.35773438 170.13671875 54.51171875 C163.38488812 46.57492333 152.78937985 41.13718138 143 38 C142.2706575 37.7523439 141.541315 37.50468781 140.78987122 37.24952698 C130.59907464 34.21607196 120.44517124 34.61994676 109.921875 34.70703125 C108.12711873 34.71145158 106.33235858 34.71450626 104.53759766 34.71618652 C97.94167213 34.73180534 91.34582983 34.77368888 84.75 34.8125 C69.9825 34.874375 55.215 34.93625 40 35 Z "
        transform="translate(51,45)" />
    <linearGradient id="SVGID_3_" gradientUnits="userSpaceOnUse" x1="136.6882" y1="441.7469" x2="136.6882" y2="208.2323"
        gradientTransform="matrix(1 0 0 -1 -6 650.25)">
        <stop offset="0" style="stop-color:#efa0d2" />
        <stop offset="0.18" style="stop-color:#8598e2" />
        <stop offset="0.57" style="stop-color:#5298FF" />
        <stop offset="1" style="stop-color:#3C8CE7" />
    </linearGradient>
</svg>